# xmcd
#
# Track frame offsets: 
#        150
#        22725
#        43125
#        58725
#        78075
#        99675
#        119594
#        142544
#        162250
#        182265
#        203660
#        219377
#        243991
#        262730
#        283819
#
# Disc length: 3987 seconds
#
# Revision: 0
# Processed by: cddbd v1.5.2PL0 Copyright (c) Steve Scherf et al.
# Submitted via: ExactAudioCopy v1.1
#
DISCID=c10f910f
DTITLE=Rabbit Junk - Consolidate
DYEAR=2016
DGENRE=Industrial
TTITLE0=Dig Dug Has A Posse
TTITLE1=Fffriends
TTITLE2=Beast
TTITLE3=Locked
TTITLE4=Sporecrystal
TTITLE5=Invasion
TTITLE6=Thug Baby
TTITLE7=Radical Acceptance
TTITLE8=Broken Highways
TTITLE9=Nroken Highways (Cyanotic Remix)
TTITLE10=Pop That Pretty Thirty
TTITLE11=Precipice
TTITLE12=Idontgiveafuck
TTITLE13=Crutch 2014
TTITLE14=Clock That Pretty Killer (Mash Up)
EXTD=
EXTT0=
EXTT1=
EXTT2=
EXTT3=
EXTT4=
EXTT5=
EXTT6=
EXTT7=
EXTT8=
EXTT9=
EXTT10=
EXTT11=
EXTT12=
EXTT13=
EXTT14=
PLAYORDER=
